<?xml version="1.0" standalone="no"?>
<!DOCTYPE svg PUBLIC "-//W3C//DTD SVG 20010904//EN"
 "http://www.w3.org/TR/2001/REC-SVG-20010904/DTD/svg10.dtd">
<svg version="1.0" xmlns="http://www.w3.org/2000/svg"
 width="2000.000000pt" height="2000.000000pt" viewBox="0 0 2000.000000 2000.000000"
 preserveAspectRatio="xMidYMid meet">

<g transform="translate(0.000000,2000.000000) scale(0.100000,-0.100000)"
fill="#000000" stroke="none">
<path d="M9761 17799 c-152 -30 -262 -89 -376 -204 -70 -69 -99 -107 -127
-165 -61 -123 -73 -220 -39 -296 25 -55 54 -74 114 -74 86 0 130 37 175 147
48 118 114 187 234 243 258 120 559 -2 638 -258 39 -125 18 -260 -62 -397 -29
-49 -84 -112 -185 -213 -152 -152 -205 -220 -229 -298 -10 -31 -19 -121 -24
-244 -5 -107 -12 -220 -15 -251 l-7 -56 -50 -12 c-86 -19 -199 -70 -285 -127
-207 -138 -324 -354 -340 -631 l-6 -101 -86 -63 c-173 -127 -788 -589 -841
-632 l-54 -44 -44 53 c-35 42 -51 54 -73 54 -21 0 -139 -83 -496 -348 -257
-191 -682 -506 -943 -698 -261 -193 -745 -550 -1075 -794 -330 -243 -698 -515
-817 -603 l-218 -161 0 -42 c0 -38 22 -78 203 -368 111 -179 283 -457 382
-618 295 -479 585 -917 658 -995 35 -38 59 -41 103 -14 44 27 481 381 844 685
152 126 155 128 158 100 2 -15 -3 -181 -12 -369 -14 -286 -62 -1497 -81 -2035
-3 -85 -8 -182 -11 -215 l-5 -61 -117 -24 c-200 -40 -735 -175 -1007 -253
-514 -149 -1022 -322 -1480 -505 -151 -61 -155 -63 -155 -88 0 -12 18 -98 40
-191 23 -92 42 -176 43 -186 2 -14 -24 -27 -128 -66 -321 -117 -715 -321
-1035 -534 -133 -88 -140 -94 -140 -127 0 -24 32 -51 255 -219 328 -247 598
-458 768 -598 l135 -112 -4 -198 c-14 -638 -31 -1056 -60 -1511 -16 -252 -14
-272 23 -272 9 0 133 58 277 129 595 295 1155 510 1801 693 99 28 186 55 193
60 18 15 15 53 -24 281 -19 115 -32 213 -27 217 4 5 107 33 228 63 922 232
1760 357 2880 429 272 18 1446 18 1730 0 986 -61 1786 -178 2610 -382 385 -95
388 -96 381 -123 -3 -12 -22 -122 -43 -245 -32 -193 -35 -224 -22 -236 8 -8
59 -26 114 -41 645 -173 1308 -426 1926 -736 172 -85 227 -109 247 -104 l25 6
-6 122 c-4 67 -13 244 -21 392 -22 393 -35 735 -42 1120 l-6 340 122 100 c158
129 485 383 784 609 131 99 242 188 247 198 6 10 8 27 4 37 -12 39 -338 259
-601 407 -167 93 -262 138 -454 215 -80 32 -146 63 -148 68 -2 5 15 75 37 155
50 176 51 200 14 220 -50 25 -441 166 -743 268 -650 218 -1281 395 -1915 537
-126 29 -230 53 -232 54 -1 2 -16 369 -33 817 -16 448 -39 1040 -50 1315 -11
275 -20 524 -20 553 l0 53 178 -148 c193 -162 480 -397 689 -566 151 -121 187
-136 230 -96 80 75 1176 1797 1244 1956 30 71 58 43 -321 330 -124 94 -371
277 -550 408 -179 130 -844 620 -1478 1089 -790 583 -1161 852 -1181 854 -23
2 -35 -4 -59 -34 -29 -35 -33 -37 -49 -22 -10 8 -202 167 -428 353 -225 186
-425 352 -442 368 -27 25 -33 38 -33 73 0 62 -25 180 -54 258 -69 181 -207
332 -391 424 -73 36 -205 79 -272 88 l-50 6 -6 148 c-11 251 4 289 204 496
156 162 201 218 258 324 234 437 -19 985 -501 1084 -84 17 -291 20 -367 5z
m284 -99 c83 -12 145 -30 145 -41 0 -5 -11 -16 -26 -25 -21 -15 -32 -15 -77
-6 -29 7 -86 14 -127 18 -76 6 -100 16 -100 40 0 23 78 29 185 14z m-215 -19
c-13 -26 -44 -35 -71 -21 -24 13 -16 26 21 33 56 10 61 8 50 -12z m150 -2058
c-1 -59 -98 -95 -140 -53 -31 31 -25 48 23 58 73 17 117 15 117 -5z m-284 -88
c26 -39 6 -71 -61 -101 -86 -37 -137 -91 -189 -200 -51 -103 -81 -133 -116
-114 -26 14 -23 26 30 135 49 100 128 189 226 255 42 27 80 50 85 50 5 0 16
-11 25 -25z m559 -264 c144 -82 230 -233 242 -419 l6 -94 58 -48 c31 -26 136
-109 233 -184 168 -131 500 -404 694 -571 l92 -80 -37 -33 c-21 -18 -98 -74
-172 -123 -282 -188 -606 -316 -962 -379 -156 -28 -475 -38 -641 -21 -445 47
-876 214 -1220 474 -38 28 -68 54 -68 57 0 3 44 39 98 80 460 350 953 729 981
754 45 42 57 74 70 191 7 55 21 130 31 166 27 89 93 179 162 219 60 34 68 36
68 15 0 -8 9 -24 20 -35 18 -18 33 -20 134 -20 107 0 116 1 130 22 9 12 16 30
16 40 0 24 6 23 65 -11z m-2001 -1374 c435 -421 1034 -670 1666 -694 601 -22
1208 173 1668 536 109 86 256 227 329 315 l41 49 116 -84 c64 -46 116 -88 116
-93 0 -20 -142 -196 -232 -287 -387 -394 -920 -662 -1498 -754 -229 -36 -575
-34 -815 5 -532 86 -1044 321 -1455 668 -100 84 -377 359 -370 365 3 2 59 43
124 91 l119 87 60 -68 c33 -37 92 -99 131 -136z m-310 -261 c406 -394 986
-703 1542 -820 837 -175 1701 29 2340 552 127 104 312 292 403 408 l63 82 481
-356 c265 -196 649 -480 854 -631 204 -152 561 -415 792 -585 l420 -309 -32
-46 c-18 -25 -35 -49 -39 -55 -13 -19 -349 217 -590 415 -216 178 -316 224
-476 217 -104 -4 -162 -29 -224 -96 -60 -66 -90 -139 -89 -220 1 -123 42 -203
164 -318 98 -93 193 -160 337 -239 58 -32 173 -95 255 -140 186 -101 267 -155
261 -171 -23 -61 -760 -1184 -781 -1191 -9 -3 -450 361 -503 415 -26 26 -53
28 -74 5 -18 -22 -19 -2 42 -1573 5 -140 17 -435 25 -655 9 -220 18 -454 22
-521 l6 -121 -179 34 c-1576 296 -2994 372 -4469 238 -470 -43 -1082 -130
-1513 -216 -57 -11 -106 -18 -109 -16 -2 3 0 97 6 209 6 111 15 347 21 523 12
358 25 718 40 1090 6 138 14 404 19 593 7 240 13 347 21 357 18 22 -13 65 -45
65 -18 0 -104 -66 -298 -229 l-274 -229 -24 31 c-174 220 -728 1048 -987 1477
-72 118 -148 243 -170 277 l-39 61 186 138 c102 76 580 428 1061 783 481 354
981 722 1110 817 l235 174 59 -68 c32 -37 100 -107 150 -156z m5921 -1244 c60
-23 140 -77 235 -157 47 -39 135 -109 195 -156 61 -46 200 -155 310 -243 227
-180 335 -256 365 -256 23 0 60 33 60 55 0 22 -51 76 -118 125 l-60 43 35 53
c23 35 40 51 48 46 50 -30 444 -325 441 -330 -98 -170 -565 -921 -781 -1257
-303 -472 -415 -636 -428 -629 -33 19 -33 24 4 100 35 72 40 94 20 94 -4 0
-25 -31 -47 -70 -21 -38 -42 -70 -45 -70 -4 0 -18 9 -33 21 l-27 21 22 37
c115 194 220 383 216 388 -13 12 -29 -10 -220 -314 l-52 -82 -39 33 -39 32 43
80 c24 43 56 98 72 121 15 23 28 44 28 47 0 27 -54 -37 -136 -161 l-41 -62
-31 27 -32 27 110 204 c61 112 109 208 107 214 -4 12 -51 -59 -171 -255 -43
-71 -81 -128 -85 -128 -3 0 -23 14 -43 30 l-37 30 41 73 c78 138 218 367 319
524 154 239 420 633 428 633 3 0 23 -14 44 -31 37 -30 48 -64 27 -85 -15 -15
-2 -42 23 -50 32 -10 67 36 67 88 0 37 -6 47 -48 87 -58 56 -159 123 -411 274
-351 211 -606 410 -662 517 -34 64 -33 168 0 227 58 101 194 137 326 85z
m-8668 -722 c125 -194 247 -381 642 -980 202 -305 382 -579 401 -609 l34 -54
-30 -24 c-16 -13 -41 -33 -55 -43 l-26 -19 -85 117 c-47 64 -129 181 -183 260
-88 130 -115 161 -115 131 0 -14 80 -138 233 -358 l121 -174 -50 -43 c-27 -24
-55 -44 -61 -44 -11 0 -139 171 -181 243 -15 25 -42 37 -42 19 0 -9 86 -148
149 -240 l40 -59 -74 -56 -73 -57 -45 63 c-156 219 -404 604 -720 1121 -104
171 -246 400 -314 509 l-124 198 23 19 c29 24 67 45 71 39 2 -2 37 -56 77
-119 98 -155 271 -400 281 -400 20 0 4 31 -80 155 -108 159 -241 374 -241 391
0 14 61 65 70 59 3 -2 32 -47 65 -99 32 -53 65 -96 72 -96 20 0 17 9 -42 115
-30 55 -55 104 -55 110 0 11 68 61 73 54 2 -2 20 -28 41 -56 61 -86 77 -66 25
31 -17 32 -27 61 -23 65 5 4 22 17 38 30 l29 21 27 -47 c14 -27 62 -104 107
-173z m5208 -3740 c1547 -58 3127 -346 4614 -840 273 -91 997 -358 1019 -376
5 -4 -20 -114 -26 -114 -3 0 -88 34 -189 76 -375 154 -741 277 -1142 384 -102
27 -189 46 -193 42 -5 -5 56 -26 134 -47 394 -105 865 -271 1241 -437 132 -58
138 -62 132 -86 -3 -13 -9 -37 -12 -53 -3 -16 -11 -29 -18 -29 -7 0 -162 61
-345 136 -182 74 -337 133 -343 131 -16 -5 71 -45 403 -183 151 -64 276 -117
278 -119 6 -5 -8 -78 -17 -93 -6 -10 -32 -5 -118 22 -118 39 -137 42 -131 25
2 -6 46 -27 98 -45 148 -53 140 -48 130 -86 -5 -18 -13 -51 -19 -74 l-11 -41
-47 7 c-81 13 -84 -12 -5 -32 25 -6 41 -13 35 -15 -6 -2 -9 -12 -7 -21 4 -16
-135 -557 -281 -1094 -36 -130 -65 -239 -65 -240 0 -2 -16 -2 -35 0 -44 5 -48
-16 -4 -25 25 -5 30 -10 25 -27 -3 -12 -13 -52 -23 -89 l-18 -68 -37 6 c-46 8
-50 -7 -7 -25 28 -12 30 -16 24 -48 -3 -19 -11 -45 -16 -59 -10 -27 -18 -26
-98 8 -74 32 -66 5 9 -31 38 -19 70 -38 70 -44 0 -10 -31 -128 -35 -134 -4 -5
-219 77 -359 138 -77 33 -141 60 -143 60 -2 0 -3 -5 -3 -10 0 -14 217 -117
368 -176 67 -26 122 -52 122 -58 0 -10 -81 -318 -85 -323 -1 -2 -44 15 -96 37
-472 203 -1129 412 -1739 554 -2645 617 -5897 439 -8287 -453 -105 -39 -226
-87 -268 -107 -43 -19 -80 -32 -84 -29 -5 5 -39 138 -41 157 0 4 8 6 18 5 10
0 70 24 133 55 213 105 555 243 909 367 96 34 181 64 189 67 8 2 12 7 9 10
-13 13 -581 -192 -938 -339 -113 -46 -227 -92 -253 -102 -26 -10 -50 -22 -53
-26 -13 -22 -23 -4 -39 68 l-17 77 26 21 c35 28 174 97 254 125 34 13 60 25
58 28 -8 8 -147 -38 -250 -84 -55 -24 -100 -43 -101 -41 -1 1 -9 32 -17 68
l-15 67 52 31 c28 17 56 31 62 31 7 0 15 5 19 12 10 16 -45 4 -98 -22 -23 -11
-42 -19 -43 -17 -1 1 -48 198 -104 437 -57 239 -109 459 -116 488 l-14 54 67
30 c86 38 189 101 175 105 -6 2 -34 -10 -63 -27 -52 -30 -162 -80 -178 -80 -5
0 -15 32 -24 70 l-15 71 53 37 c81 56 71 71 -16 27 -28 -14 -50 -22 -50 -19 0
8 -138 590 -146 617 -3 9 0 17 6 17 7 0 25 10 42 21 16 12 51 29 76 39 57 22
71 46 21 36 -25 -5 -111 -41 -149 -63 -6 -3 -53 178 -48 182 9 6 400 196 433
210 22 10 35 19 29 21 -13 6 -216 -78 -360 -148 l-111 -54 -15 62 -15 62 112
56 c230 114 796 343 1018 412 31 10 57 21 57 26 0 11 10 14 -166 -46 -295
-100 -563 -206 -868 -340 -82 -36 -152 -66 -156 -66 -5 0 -16 33 -25 73 -9 39
-18 79 -21 89 -4 13 29 30 173 86 1962 772 4082 1139 6138 1062z m-6251 -1728
c14 -62 26 -116 26 -121 0 -5 -12 -12 -27 -16 -57 -14 -303 -109 -440 -171
-177 -79 -313 -147 -471 -235 -67 -38 -129 -69 -136 -69 -15 0 -176 119 -176
130 0 21 378 249 585 352 206 104 594 263 606 250 4 -4 19 -58 33 -120z
m12066 51 c174 -72 409 -190 579 -292 138 -84 351 -229 351 -240 -1 -10 -168
-131 -181 -131 -7 0 -60 26 -118 59 -240 133 -531 269 -772 361 -77 29 -104
43 -102 56 0 9 16 70 35 135 30 107 35 118 53 113 11 -3 81 -31 155 -61z
m-12030 -199 c0 -3 108 -461 240 -1017 133 -557 256 -1075 274 -1152 30 -130
35 -141 62 -155 24 -12 73 -14 284 -12 140 2 252 1 249 -2 -2 -3 -72 -26 -154
-51 -319 -99 -607 -214 -963 -386 -105 -50 -194 -90 -196 -88 -2 2 2 114 10
249 19 356 33 712 40 1072 7 304 6 319 -12 339 -25 28 -397 326 -677 543 -179
138 -216 171 -205 182 23 22 321 178 485 254 142 66 537 229 556 230 4 0 7 -3
7 -6z m11843 -48 c301 -114 909 -411 906 -444 0 -4 -100 -83 -222 -177 -321
-247 -666 -524 -677 -544 -15 -29 10 -933 41 -1459 6 -101 8 -186 5 -189 -3
-3 -95 38 -204 90 -359 174 -615 276 -969 387 -73 23 -133 43 -133 46 0 3 111
4 248 3 141 -2 260 2 277 7 28 10 32 18 62 125 17 63 149 546 293 1074 308
1127 302 1105 305 1105 1 0 32 -11 68 -24z m-9993 -1879 c0 -18 9 -90 20 -161
11 -71 20 -134 20 -140 0 -17 -99 -20 -105 -4 -2 7 -13 81 -23 163 l-18 150
46 16 c25 9 48 14 53 12 4 -2 7 -19 7 -36z m8056 32 c24 -6 44 -16 44 -23 0
-6 -9 -78 -20 -161 -11 -82 -20 -153 -20 -158 0 -4 -25 -6 -56 -5 -50 2 -55 4
-50 23 2 11 15 91 27 178 12 86 24 157 26 157 2 0 24 -5 49 -11z m-8170 -187
c12 -81 20 -150 17 -154 -2 -5 -24 -8 -48 -8 -51 0 -47 -9 -65 162 -14 139
-15 133 28 144 20 6 39 8 42 6 3 -2 15 -69 26 -150z m8302 147 c30 -10 30 -10
25 -72 -3 -34 -11 -100 -17 -147 l-11 -85 -49 -3 -49 -3 7 63 c4 35 11 86 16
113 5 28 11 71 15 98 7 50 13 54 63 36z m187 -62 c0 -1 -6 -57 -13 -124 l-15
-123 -69 0 -70 0 5 33 c3 17 13 82 22 143 l17 111 61 -19 c34 -10 61 -20 62
-21z m-8612 -94 c10 -71 17 -134 17 -140 0 -9 -20 -13 -65 -13 -59 0 -65 2
-69 23 -7 33 -27 220 -24 221 7 4 104 34 113 35 6 1 18 -56 28 -126z m8722 58
l50 -19 -3 -64 c-1 -35 -5 -78 -8 -95 l-5 -33 -74 0 c-41 0 -75 3 -75 8 0 4 8
58 17 119 14 92 20 112 33 108 8 -3 38 -14 65 -24z m-8891 -3 c11 -54 26 -157
26 -181 0 -27 0 -27 -75 -27 -71 0 -75 1 -76 23 0 12 -4 55 -7 94 l-8 73 56
19 c72 25 79 25 84 -1z m-161 -91 c4 -29 10 -67 13 -85 l7 -32 -81 0 -80 0 -4
65 -3 64 65 24 c36 13 68 23 71 21 3 -2 9 -27 12 -57z m9227 33 c34 -13 45
-23 44 -39 0 -11 -1 -41 -2 -66 l-2 -45 -79 0 -78 0 13 83 c8 45 14 86 14 90
0 9 21 4 90 -23z m-9400 -52 c0 -13 3 -40 6 -60 l7 -38 -61 0 -60 0 -7 36 c-3
20 -5 38 -3 39 4 5 101 43 111 44 4 1 7 -9 7 -21z m9588 -18 c1 0 2 -18 2 -40
l0 -40 -66 0 -66 0 6 30 c3 17 9 43 12 60 l5 29 52 -19 c29 -11 53 -20 55 -20z
m-9735 -47 c3 -16 4 -29 2 -31 -1 -2 -38 -2 -81 0 l-79 3 65 27 c83 33 87 33
93 1z m9872 -9 l50 -22 -82 -1 c-69 -1 -82 1 -78 14 3 8 7 22 10 31 6 18 22
14 100 -22z m-9110 -119 c-5 -3 -99 -32 -208 -65 -506 -155 -1014 -357 -1510
-602 -120 -60 -220 -108 -223 -108 -6 0 -5 101 2 152 6 42 10 47 73 85 226
139 694 338 1071 457 290 91 247 84 540 84 146 0 261 -1 255 -3z m8886 -34
c409 -121 883 -311 1160 -466 140 -79 136 -74 142 -182 3 -51 4 -93 1 -93 -2
0 -57 26 -122 59 -558 279 -1157 516 -1772 700 l-65 19 261 1 261 1 134 -39z"/>
<path d="M11725 13729 c-118 -101 -467 -318 -609 -378 -47 -21 -68 -41 -41
-41 21 0 253 117 366 185 112 68 349 231 367 253 17 22 15 32 -6 32 -10 0 -45
-23 -77 -51z"/>
<path d="M11527 13439 c-105 -72 -134 -99 -109 -99 12 0 166 93 208 125 31 24
46 55 26 55 -4 0 -60 -36 -125 -81z"/>
<path d="M8600 13461 c0 -26 326 -194 520 -269 143 -55 311 -105 458 -136 131
-28 182 -32 182 -16 0 15 -31 25 -180 53 -308 59 -628 178 -907 337 -40 22
-73 36 -73 31z"/>
<path d="M9993 13046 c-46 -7 -85 -15 -89 -18 -13 -14 72 -20 149 -12 62 7 82
13 82 24 0 20 -38 21 -142 6z"/>
<path d="M11710 11040 c-615 -8 -1411 -27 -1447 -35 -44 -10 -48 -34 -48 -295
1 -261 10 -360 52 -550 34 -154 83 -292 151 -424 201 -394 567 -636 960 -636
300 0 554 125 731 361 116 153 196 332 251 562 56 235 64 313 65 661 0 204 -3
326 -10 340 -13 26 32 25 -705 16z m630 -124 l0 -33 -61 -7 c-34 -3 -77 -6
-95 -6 -19 0 -34 -4 -34 -10 0 -5 15 -10 34 -10 18 0 61 -3 95 -6 59 -7 61 -8
61 -35 l0 -29 -275 0 c-238 0 -275 -2 -275 -15 0 -13 30 -15 214 -15 245 0
336 -7 336 -26 0 -7 -15 -17 -32 -23 -55 -17 -1264 -61 -1690 -61 l-278 0 0
25 c0 18 6 26 23 29 12 2 157 9 322 16 363 13 455 20 455 33 0 6 -137 8 -377
7 -441 -3 -423 -4 -423 14 0 9 30 16 113 25 62 6 119 11 125 11 7 0 12 5 12
10 0 6 -48 10 -125 10 l-125 0 0 35 0 35 68 0 c158 0 1356 38 1712 53 36 2
100 4 143 5 l77 2 0 -34z m-17 -386 c-6 -152 -60 -432 -118 -606 -65 -196
-177 -388 -286 -488 -251 -232 -599 -276 -924 -116 -208 102 -361 261 -480
499 -80 160 -143 385 -160 576 -3 39 -8 84 -10 101 l-5 30 252 12 c139 7 451
19 693 28 242 8 519 19 615 23 96 5 231 8 300 7 l125 -1 -2 -65z"/>
<path d="M10720 10821 c0 -9 58 -21 108 -21 34 0 43 14 16 24 -24 9 -124 7
-124 -3z"/>
<path d="M12177 10493 c-11 -19 -16 -79 -8 -91 4 -8 19 -12 32 -10 20 2 25 10
27 41 2 21 -2 45 -9 53 -12 15 -35 19 -42 7z"/>
<path d="M10466 10342 c-7 -11 41 -253 53 -265 14 -14 41 -1 41 20 0 28 -72
253 -81 253 -4 0 -10 -4 -13 -8z"/>
<path d="M12133 10228 c-10 -14 -73 -208 -73 -227 0 -22 25 -10 46 22 30 47
77 171 72 193 -4 23 -31 30 -45 12z"/>
<path d="M10630 9884 c0 -25 50 -156 66 -173 16 -17 44 -7 44 16 0 24 -81 166
-97 171 -7 2 -13 -4 -13 -14z"/>
<path d="M11912 9712 c-24 -16 -102 -136 -93 -145 13 -13 63 16 104 62 39 44
44 60 25 79 -14 14 -19 14 -36 4z"/>
<path d="M10900 9526 c0 -31 148 -143 175 -132 36 14 11 49 -70 97 -85 51
-105 58 -105 35z"/>
<path d="M11372 9402 c-33 -10 -29 -25 10 -39 75 -27 170 -8 155 31 -5 13 -20
16 -74 15 -37 -1 -78 -4 -91 -7z"/>
<path d="M13737 12336 c-74 -27 -117 -90 -117 -171 0 -74 45 -137 122 -169
134 -56 276 64 240 200 -17 61 -38 91 -86 119 -53 31 -111 39 -159 21z m103
-91 c32 -16 55 -50 45 -65 -10 -16 -77 -11 -97 7 -18 16 -24 53 -11 66 10 11
32 8 63 -8z"/>
<path d="M13970 11776 c0 -2 46 -32 103 -67 146 -89 430 -276 537 -354 93 -66
125 -77 125 -40 0 24 -290 210 -571 365 -170 94 -194 106 -194 96z"/>
<path d="M14490 11633 c0 -5 23 -21 51 -38 28 -16 94 -63 147 -102 101 -76
122 -85 122 -55 0 12 -48 47 -150 110 -144 88 -170 101 -170 85z"/>
<path d="M14710 11603 c1 -16 122 -94 137 -89 25 10 9 28 -53 63 -58 32 -84
40 -84 26z"/>
<path d="M14315 10105 c-25 -41 -27 -73 -4 -59 11 7 49 79 49 94 0 23 -21 7
-45 -35z"/>
<path d="M5150 11549 c0 -14 116 -194 136 -210 8 -6 17 -9 21 -5 10 10 -14 53
-78 143 -56 77 -79 98 -79 72z"/>
<path d="M5665 10310 c-7 -12 40 -80 56 -80 12 0 12 26 -1 50 -14 26 -47 43
-55 30z"/>
<path d="M10296 7158 c-3 -7 -7 -125 -10 -263 -4 -137 -9 -284 -13 -327 l-6
-76 -126 -7 c-130 -8 -377 -2 -388 9 -10 10 -21 110 -33 301 -7 99 -15 221
-18 270 l-7 90 -104 3 -104 3 6 -273 c7 -283 26 -670 52 -1032 8 -115 15 -218
15 -230 0 -20 5 -21 78 -20 42 1 87 2 100 3 l22 1 0 329 0 329 101 7 c55 4
172 4 260 0 l159 -7 1 -72 c1 -39 3 -185 4 -323 1 -139 5 -256 9 -260 4 -5 54
-10 110 -11 l103 -4 6 528 c4 290 7 644 7 786 l0 258 -110 0 c-80 0 -112 -3
-114 -12z"/>
<path d="M11097 7038 c-27 -158 -36 -241 -62 -603 -33 -456 -66 -819 -81 -866
-4 -13 15 -18 125 -29 71 -7 133 -10 139 -6 5 3 13 47 16 98 14 184 36 382
102 910 37 296 65 541 61 544 -8 9 -212 44 -253 44 l-31 0 -16 -92z"/>
<path d="M8440 7085 c-258 -52 -430 -244 -430 -480 0 -171 90 -303 250 -367
50 -20 74 -22 250 -23 209 -1 249 -8 309 -53 108 -80 90 -278 -32 -359 -27
-18 -68 -38 -90 -44 -86 -23 -235 8 -302 63 -36 31 -75 94 -75 124 0 15 -10
16 -89 10 -134 -11 -146 -16 -145 -57 3 -67 44 -151 104 -210 94 -95 220 -145
389 -156 300 -20 515 142 552 414 26 197 -39 341 -190 418 -93 47 -153 57
-341 60 -104 1 -187 7 -204 14 -80 32 -126 97 -126 176 0 217 390 345 533 175
29 -34 47 -87 47 -139 l0 -34 108 6 c59 3 115 8 124 12 38 15 30 173 -14 258
-27 54 -98 121 -161 151 -106 52 -319 71 -467 41z"/>
<path d="M12130 6927 c-214 -49 -288 -239 -360 -925 -34 -332 -26 -410 55
-499 88 -99 235 -148 445 -147 170 1 229 19 305 98 89 91 144 221 221 529 25
99 56 217 69 263 90 312 30 495 -200 609 -39 19 -107 44 -151 56 -99 26 -304
34 -384 16z m356 -217 c83 -29 122 -63 157 -137 28 -61 29 -70 24 -147 -10
-139 -74 -433 -152 -702 -20 -67 -81 -137 -140 -160 -35 -13 -66 -16 -142 -12
-151 8 -238 55 -278 152 -44 105 14 553 101 784 83 222 222 293 430 222z"/>
<path d="M7102 6882 c-121 -30 -143 -38 -147 -56 -14 -60 -36 -279 -46 -453
-15 -253 1 -732 37 -1071 6 -59 8 -63 28 -58 11 4 55 14 96 22 41 9 81 21 88
27 10 8 13 52 11 195 -2 183 -2 185 20 194 44 16 332 70 346 64 8 -3 51 -80
95 -171 l80 -165 52 0 c71 0 154 23 150 41 -23 105 -639 1472 -661 1468 -3 -1
-70 -17 -149 -37z m169 -396 c59 -122 240 -548 235 -553 -5 -6 -381 -82 -384
-78 -3 2 -5 156 -6 342 -1 299 1 342 16 376 14 31 22 37 48 37 30 0 33 -5 91
-124z"/>
<path d="M13377 6518 c-65 -200 -95 -304 -171 -593 -144 -551 -176 -672 -185
-702 l-9 -32 91 -30 c51 -17 101 -31 112 -31 17 0 25 19 56 128 149 523 243
842 248 842 7 0 136 -653 182 -920 16 -96 32 -184 34 -195 3 -15 27 -28 95
-51 49 -18 92 -29 94 -25 3 4 20 52 39 107 19 54 77 216 129 359 266 729 361
1007 347 1016 -22 14 -160 66 -195 73 l-32 7 -50 -153 c-28 -84 -92 -288 -142
-453 -50 -165 -102 -331 -114 -370 l-23 -70 -12 100 c-27 225 -85 535 -146
785 -36 145 -65 275 -65 287 0 26 -17 36 -113 69 -117 40 -106 49 -170 -148z"/>
<path d="M6305 6664 c-169 -31 -484 -128 -684 -210 -146 -60 -261 -116 -261
-127 0 -10 464 -1321 496 -1401 6 -15 14 -17 46 -12 47 8 198 68 198 79 0 4
-41 136 -91 294 -50 157 -87 289 -82 294 4 4 98 40 208 79 110 40 207 76 216
81 19 10 19 6 -21 147 -13 46 -26 72 -35 72 -7 0 -114 -31 -235 -69 l-222 -69
-19 32 c-26 43 -126 353 -116 362 1 1 70 27 152 59 185 71 439 155 563 185 50
12 92 25 92 29 0 3 -11 47 -23 96 l-23 90 -40 2 c-21 1 -75 -5 -119 -13z"/>
<path d="M13190 4677 c0 -11 16 -17 63 -22 34 -4 118 -18 186 -31 111 -22 145
-24 129 -9 -12 12 -247 67 -310 72 -57 5 -68 3 -68 -10z"/>
<path d="M13922 4488 c2 -6 53 -24 114 -40 285 -74 617 -188 939 -321 243
-101 323 -124 340 -96 10 15 5 18 -81 39 -44 10 -151 49 -239 85 -314 130
-587 221 -905 304 -173 46 -173 46 -168 29z"/>
<path d="M11684 16439 c-3 -6 -2 -14 2 -19 5 -4 82 -29 171 -54 2209 -630
3927 -2401 4489 -4629 78 -309 136 -649 171 -997 22 -223 25 -889 5 -1110 -63
-686 -217 -1326 -457 -1905 -76 -181 -85 -215 -61 -215 17 0 18 2 112 231 523
1283 606 2797 228 4158 -257 924 -709 1766 -1348 2511 -126 147 -447 471 -596
603 -739 651 -1579 1116 -2500 1382 -209 60 -206 60 -216 44z"/>
<path d="M8350 16420 c-14 -5 -100 -31 -192 -59 -762 -231 -1543 -651 -2178
-1170 -271 -222 -606 -548 -825 -805 -564 -659 -987 -1414 -1254 -2240 -408
-1260 -412 -2664 -12 -3941 89 -284 215 -605 237 -605 23 0 16 30 -30 145
-205 511 -344 1047 -416 1603 -43 330 -61 841 -41 1167 39 625 145 1166 345
1750 170 499 438 1038 737 1484 843 1256 2115 2189 3554 2606 105 30 151 48
153 59 4 18 -34 21 -78 6z"/>
<path d="M8790 16285 c-579 -124 -1028 -279 -1510 -520 -280 -140 -454 -240
-705 -408 -539 -361 -1053 -840 -1455 -1357 -660 -849 -1087 -1853 -1240
-2918 -49 -342 -63 -542 -64 -897 0 -636 70 -1148 239 -1735 89 -309 252 -742
287 -764 21 -13 51 2 56 27 2 9 -18 69 -44 134 -126 318 -267 810 -328 1143
-78 425 -100 678 -101 1140 0 394 7 510 51 840 145 1089 594 2145 1282 3015
857 1083 2053 1850 3397 2180 121 29 249 60 284 67 70 14 94 35 75 66 -17 26
-55 24 -224 -13z"/>
<path d="M11556 16224 c-19 -19 -20 -38 -3 -53 8 -6 96 -35 198 -65 916 -271
1696 -701 2414 -1331 146 -128 442 -429 580 -590 822 -956 1329 -2116 1469
-3355 41 -367 46 -943 11 -1275 -69 -651 -213 -1235 -442 -1789 -60 -148 -64
-173 -29 -182 43 -10 41 -14 152 259 430 1053 555 2214 363 3379 -138 841
-471 1686 -948 2403 -769 1156 -1889 2019 -3191 2455 -146 50 -528 160 -552
160 -3 0 -14 -7 -22 -16z"/>
<path d="M9578 4213 c-15 -4 -18 -22 -20 -139 l-3 -134 -44 129 c-40 117 -47
130 -70 133 -56 8 -58 5 -64 -114 -9 -154 3 -541 17 -550 6 -4 26 -8 44 -8
l32 0 1 158 c0 94 4 149 9 137 4 -11 25 -76 46 -145 21 -69 45 -131 53 -138 9
-7 30 -12 46 -10 l30 3 2 210 c2 116 0 269 -5 340 -7 129 -7 130 -32 132 -14
0 -33 -1 -42 -4z"/>
<path d="M9984 4203 c-54 -3 -63 -7 -68 -26 -8 -30 -8 -432 0 -545 l7 -92 132
0 c150 0 145 -3 145 81 l0 49 -90 0 -91 0 3 63 3 62 38 3 37 3 0 70 0 69 -39
0 c-46 0 -53 12 -44 75 l6 44 86 3 86 3 0 70 0 70 -75 1 c-41 0 -103 -1 -136
-3z"/>
<path d="M9000 3860 l0 -330 60 0 60 0 0 330 0 330 -60 0 -60 0 0 -330z"/>
<path d="M10775 4169 c-4 -12 -4 -159 0 -326 l7 -304 47 3 46 3 3 123 c3 132
7 141 57 128 24 -6 24 -8 27 -129 l3 -122 49 -3 49 -3 -6 212 c-4 117 -7 263
-7 326 l0 114 -47 -3 -48 -3 0 -60 c-1 -33 -2 -88 -3 -122 l-2 -63 -34 0 c-43
0 -46 8 -46 125 0 119 -3 125 -50 125 -31 0 -40 -4 -45 -21z"/>
<path d="M8501 4163 c-21 -4 -23 -9 -17 -41 3 -21 6 -162 6 -314 l0 -278 109
0 c60 0 123 3 140 6 31 6 31 7 31 69 l0 63 -85 7 -85 7 -1 32 c-1 17 -5 126
-8 241 l-6 210 -30 1 c-16 1 -41 0 -54 -3z"/>
<path d="M11316 4113 c-3 -21 -6 -158 -6 -304 l0 -266 43 -6 c23 -3 85 -3 139
0 l96 6 6 30 c15 75 15 75 -84 83 l-91 7 3 56 3 56 38 3 37 3 0 59 c0 61 -7
70 -55 70 -32 0 -37 12 -30 64 l7 43 89 -5 89 -5 0 65 c0 65 0 66 -31 72 -17
3 -80 6 -139 6 l-107 0 -7 -37z"/>
<path d="M11857 4123 c-20 -3 -27 -9 -23 -20 3 -8 6 -140 6 -294 l0 -279 33 0
c76 0 77 2 77 109 1 114 8 111 61 -24 l33 -85 40 0 c77 0 77 7 15 132 l-56
113 31 15 c19 9 40 33 54 60 45 87 7 210 -78 252 -36 18 -144 30 -193 21z
m156 -141 c21 -18 22 -65 3 -81 -8 -7 -30 -11 -48 -9 -32 3 -33 4 -36 55 -3
47 -1 52 20 55 26 5 36 1 61 -20z"/>
<path d="M8031 4102 c-65 -35 -76 -74 -75 -262 1 -265 31 -328 153 -316 105
10 131 48 131 197 0 117 -1 119 -63 119 -68 0 -77 -8 -77 -61 0 -46 2 -49 25
-49 19 0 25 -5 25 -23 0 -45 -44 -76 -77 -52 -16 12 -18 31 -21 142 -4 158 4
197 41 201 22 3 30 -3 44 -32 17 -36 45 -46 87 -30 32 12 12 115 -29 154 -35
32 -117 39 -164 12z"/>
<path d="M7573 4063 c-18 -4 -25 -18 -42 -91 -25 -111 -48 -228 -61 -317 -6
-38 -13 -83 -16 -98 l-6 -28 53 3 53 3 8 40 c16 79 18 85 38 85 19 0 23 -9 46
-102 6 -25 10 -28 50 -28 34 0 44 4 44 16 0 9 -22 128 -50 264 -27 136 -50
251 -50 254 0 6 -31 6 -67 -1z m43 -251 c6 -61 6 -62 -18 -62 -24 0 -24 1 -17
58 4 31 8 66 8 77 3 38 19 -8 27 -73z"/>
<path d="M12392 3793 l3 -258 135 0 135 0 3 48 3 47 -53 0 c-29 0 -70 3 -90 6
-37 6 -38 8 -38 50 l0 44 39 0 c37 0 39 1 45 39 9 58 0 71 -45 71 l-39 0 0 46
0 46 91 -8 90 -7 -3 54 -3 54 -90 12 c-49 6 -111 12 -138 12 l-47 1 2 -257z"/>
<path d="M7120 4004 c-58 -8 -111 -16 -117 -19 -8 -3 -13 -24 -13 -55 l0 -50
39 0 38 0 6 -67 c4 -38 7 -117 7 -176 l0 -108 53 3 52 3 -4 182 -4 181 47 7
46 7 0 54 c0 63 13 60 -150 38z"/>
<path d="M12900 3570 l0 -40 45 0 45 0 0 40 0 40 -45 0 -45 0 0 -40z"/>
</g>
</svg>
